<?xml version="1.0" encoding="utf-8"?>
<!DOCTYPE svg PUBLIC "-//W3C//DTD SVG 1.1//EN" "http://www.w3.org/Graphics/SVG/1.1/DTD/svg11.dtd">
<svg version="1.1" id="Calque_1" xmlns="http://www.w3.org/2000/svg" xmlns:xlink="http://www.w3.org/1999/xlink" x="0px" y="0px"
	 width="115px" height="165px" viewBox="0 0 115 165" enable-background="new 0 0 115 165" xml:space="preserve">
<g>
	<polygon fill="#FFFEFE" points="69.837,75.786 115.029,75.786 115.029,0 -0.029,0 -0.029,115.063 69.837,115.063 	"/>
	<polygon fill="#FFFEFE" points="107.422,88.427 82.47,88.427 82.47,110.063 	"/>
</g>
<g>
	<path fill="#FFFEFE" d="M91.773,132.358c-3.903,0-7.402,1.714-9.79,4.425c-2.397-2.711-5.899-4.425-9.793-4.425
		c-7.21,0-13.062,5.843-13.062,13.057v16.315c0,1.812,1.461,3.27,3.265,3.27c1.808,0,3.265-1.458,3.265-3.27v-16.315
		c0-3.607,2.93-6.529,6.532-6.529c3.601,0,6.519,2.922,6.519,6.529v16.315c0,1.812,1.471,3.27,3.274,3.27
		c1.805,0,3.262-1.458,3.262-3.27v-16.315c0-3.607,2.921-6.529,6.528-6.529c3.604,0,6.527,2.922,6.527,6.529v16.315
		c0,1.812,1.463,3.27,3.266,3.27c1.798,0,3.267-1.458,3.267-3.27v-16.315C104.833,138.201,98.988,132.358,91.773,132.358z"/>
	<path fill="#FFFEFE" d="M42.81,132.358h-6.526h-6.531v29.372c0,1.812,1.465,3.27,3.267,3.27c1.806,0,3.265-1.458,3.265-3.27
		v-22.845h6.526c3.607,0,6.529,2.922,6.529,6.529c0,3.604-2.922,6.525-6.529,6.525H39.55v6.53h3.259
		c7.214,0,13.059-5.846,13.059-13.056C55.869,138.201,50.023,132.358,42.81,132.358z"/>
	<path fill="#FFFEFE" d="M16.696,151.94v-16.319c0-1.804-1.46-3.263-3.265-3.263c-1.804,0-3.265,1.459-3.265,3.263v16.319
		c0,7.22,5.847,13.06,13.06,13.06h3.263v-6.529h-3.263C19.623,158.471,16.696,155.553,16.696,151.94z"/>
</g>
</svg>
