<?xml version="1.0" encoding="utf-8"?>
<!DOCTYPE svg PUBLIC "-//W3C//DTD SVG 1.1//EN" "http://www.w3.org/Graphics/SVG/1.1/DTD/svg11.dtd">
<svg version="1.1" xmlns="http://www.w3.org/2000/svg" xmlns:xlink="http://www.w3.org/1999/xlink" x="0px" y="0px" width="80px"
	 height="31px" viewBox="0 0 80 31" enable-background="new 0 0 80 31" xml:space="preserve">
<g>
	<polygon fill="#FFFFFF" points="17.805,20.152 29.323,20.152 29.323,0.838 0,0.838 0,30.162 17.805,30.162 		"/>
	<polygon fill="#FFFFFF" points="27.385,23.374 21.025,23.374 21.025,28.888 		"/>
</g>
<g>
	<path fill="#FFFFFF" d="M74.555,8.705c-1.625,0-3.082,0.714-4.076,1.843c-0.998-1.128-2.456-1.843-4.077-1.843
		c-3.002,0-5.438,2.433-5.438,5.436v6.793c0,0.754,0.608,1.361,1.359,1.361c0.753,0,1.359-0.607,1.359-1.361v-6.793
		c0-1.502,1.22-2.718,2.72-2.718c1.499,0,2.714,1.216,2.714,2.718v6.793c0,0.754,0.612,1.361,1.363,1.361s1.358-0.607,1.358-1.361
		v-6.793c0-1.502,1.216-2.718,2.718-2.718c1.501,0,2.718,1.216,2.718,2.718v6.793c0,0.754,0.609,1.361,1.359,1.361
		c0.749,0,1.36-0.607,1.36-1.361v-6.793C79.992,11.138,77.559,8.705,74.555,8.705z"/>
	<path fill="#FFFFFF" d="M54.168,8.705h-2.717h-2.72v12.229c0,0.754,0.61,1.361,1.36,1.361c0.752,0,1.359-0.607,1.359-1.361v-9.511
		h2.717c1.502,0,2.719,1.216,2.719,2.718c0,1.5-1.217,2.717-2.719,2.717h-1.356v2.719h1.356c3.004,0,5.438-2.434,5.438-5.436
		C59.605,11.138,57.172,8.705,54.168,8.705z"/>
	<path fill="#FFFFFF" d="M43.296,16.857v-6.794c0-0.751-0.608-1.358-1.359-1.358s-1.359,0.607-1.359,1.358v6.794
		c0,3.006,2.435,5.438,5.438,5.438h1.358v-2.719h-1.358C44.515,19.576,43.296,18.361,43.296,16.857z"/>
</g>
</svg>
